<?xml version="1.0" standalone="no"?>
<!DOCTYPE svg PUBLIC "-//W3C//DTD SVG 20010904//EN"
 "http://www.w3.org/TR/2001/REC-SVG-20010904/DTD/svg10.dtd">
<svg version="1.0" xmlns="http://www.w3.org/2000/svg"
 width="320.000000pt" height="320.000000pt" viewBox="0 0 320.000000 320.000000"
 preserveAspectRatio="xMidYMid meet">
<metadata>
Created by potrace 1.11, written by Peter Selinger 2001-2013
</metadata>
<g transform="translate(0.000000,320.000000) scale(0.100000,-0.100000)"
fill="#000000" stroke="none">
<path d="M20 2934 c0 -9 -5 -12 -12 -8 -10 6 -10 4 -2 -7 13 -15 35 -112 31
-132 -1 -6 3 -11 8 -10 6 1 10 -16 9 -38 0 -21 4 -39 9 -39 5 0 7 -7 3 -15 -3
-8 -2 -15 3 -15 5 0 7 -11 6 -25 -2 -14 0 -25 5 -25 5 0 7 -11 5 -25 -1 -14 1
-25 6 -25 5 0 5 -7 2 -17 -4 -9 -2 -14 3 -11 5 4 10 -4 10 -15 3 -46 9 -77 15
-77 3 0 5 -11 4 -25 -2 -14 0 -27 5 -30 5 -3 7 -16 5 -30 -1 -14 2 -25 7 -25
6 0 8 -6 5 -14 -3 -8 -3 -17 1 -21 4 -4 8 -15 8 -26 1 -10 2 -20 4 -21 2 -3 9
-34 14 -63 2 -11 9 -42 16 -70 6 -27 13 -60 14 -72 1 -12 9 -30 17 -39 9 -11
9 -15 2 -10 -7 4 -13 2 -13 -3 0 -6 4 -11 8 -11 7 0 12 -29 15 -77 0 -7 3 -13
7 -13 5 0 10 -32 13 -77 0 -7 4 -13 9 -13 5 0 6 -4 3 -10 -3 -5 -3 -15 1 -22
4 -7 9 -24 10 -38 3 -26 11 -65 14 -65 2 0 7 -31 12 -72 1 -7 5 -13 10 -13 5
0 6 -5 3 -10 -4 -6 -1 -18 7 -27 11 -14 11 -16 0 -9 -11 7 -12 4 -3 -13 7 -12
9 -26 6 -31 -3 -6 -1 -10 5 -10 6 0 9 -4 6 -8 -3 -5 1 -33 9 -62 8 -29 12 -57
9 -62 -3 -4 -1 -8 4 -8 5 0 10 -11 11 -25 3 -47 4 -55 11 -55 3 0 7 -10 8 -22
3 -36 8 -63 14 -73 3 -6 4 -20 3 -33 -1 -12 2 -22 7 -22 5 0 8 -6 7 -12 -2 -7
0 -26 4 -43 4 -16 10 -41 13 -55 3 -14 7 -33 7 -42 1 -10 5 -18 9 -18 4 0 7
-8 7 -17 1 -30 17 -118 21 -118 2 0 10 -37 12 -62 1 -13 5 -23 8 -23 3 0 7
-12 8 -28 1 -15 5 -38 8 -52 15 -72 16 -75 33 -142 5 -21 7 -38 4 -38 -3 0 0
-7 7 -15 7 -8 9 -15 5 -15 -4 0 -2 -7 5 -15 9 -11 9 -15 1 -15 -9 0 -9 -6 0
-22 13 -23 20 -54 22 -95 0 -13 5 -23 9 -23 4 0 7 -6 6 -12 -2 -10 60 -14 280
-16 185 -1 282 1 283 8 2 13 6 29 9 33 1 1 3 10 6 20 2 9 6 25 8 35 3 9 5 18
6 20 2 1 3 10 4 20 1 9 5 26 9 37 3 11 9 34 12 50 7 32 12 57 15 65 1 3 2 8 1
12 0 4 5 24 13 45 7 21 11 44 9 51 -3 6 0 12 5 12 6 0 9 11 7 25 -1 14 1 25 5
25 4 0 7 10 6 22 -1 13 2 26 6 29 4 3 9 17 10 32 1 15 5 27 9 27 3 0 5 11 4
25 -2 14 1 25 6 25 5 0 8 3 7 8 -1 4 4 34 12 67 7 33 13 66 13 73 0 6 4 12 8
12 4 0 6 8 4 18 -1 9 0 22 4 27 7 13 13 35 15 63 0 12 4 22 9 22 4 0 6 3 5 8
-1 4 3 25 7 47 13 56 12 55 15 58 2 3 10 39 12 60 1 9 5 17 9 17 3 0 5 11 4
25 -2 14 1 25 6 25 6 0 7 5 4 10 -4 6 -2 16 3 23 5 7 8 20 7 30 -2 9 0 17 5
17 5 0 7 11 5 25 -1 14 2 25 7 25 5 0 6 5 3 10 -3 5 -3 10 2 10 4 0 9 12 10
28 1 25 9 64 13 70 2 1 3 5 4 10 1 4 5 13 10 21 7 10 6 12 -3 6 -10 -6 -11 -3
-2 13 6 11 11 30 11 41 0 12 6 21 13 21 8 0 7 4 -3 10 -12 8 -12 10 -1 10 8 0
11 7 8 20 -3 11 -1 20 4 20 5 0 8 3 8 8 -1 4 0 10 1 15 1 4 4 16 5 27 1 11 3
21 5 23 4 5 21 84 23 109 2 23 27 32 28 10 0 -9 2 -24 4 -32 2 -8 5 -24 8 -35
2 -11 9 -31 14 -45 6 -14 8 -29 6 -33 -3 -5 0 -20 6 -35 6 -15 13 -38 15 -52
3 -14 5 -25 6 -25 1 0 3 -7 5 -15 2 -8 7 -26 10 -40 3 -14 8 -34 10 -45 2 -11
6 -31 10 -45 4 -14 8 -34 10 -45 2 -11 4 -21 5 -22 2 -2 3 -7 4 -12 0 -5 4
-12 8 -16 4 -4 4 -13 1 -21 -3 -8 1 -14 8 -14 11 0 11 -3 -1 -10 -12 -7 -12
-10 -1 -10 7 0 11 -6 8 -15 -4 -8 -1 -17 4 -21 6 -3 9 -15 6 -25 -3 -11 -1
-19 3 -19 5 0 7 -8 6 -17 -2 -10 0 -20 5 -23 4 -3 10 -21 12 -40 3 -19 6 -35
7 -35 1 0 4 -16 7 -35 2 -19 8 -37 11 -40 4 -3 8 -18 10 -35 1 -16 5 -37 9
-45 3 -8 8 -24 10 -34 2 -11 9 -26 16 -35 10 -12 9 -13 -2 -6 -11 6 -13 4 -7
-11 5 -10 9 -25 9 -31 0 -7 5 -13 10 -13 5 0 6 -7 3 -16 -4 -9 -1 -23 5 -30 6
-8 9 -14 6 -14 -3 0 -1 -15 4 -32 5 -18 12 -46 15 -63 7 -39 10 -47 17 -65 4
-8 8 -26 11 -40 13 -73 20 -96 30 -109 9 -12 8 -13 -4 -6 -12 6 -13 5 -2 -6 6
-7 12 -23 12 -36 0 -13 3 -23 8 -23 4 0 8 -10 9 -22 2 -32 10 -73 13 -73 3 0
7 -23 12 -62 1 -13 6 -23 11 -23 5 0 6 -9 2 -19 -3 -11 -1 -22 4 -25 6 -4 8
-13 5 -20 -3 -8 0 -17 5 -21 6 -3 9 -10 6 -15 -4 -6 110 -10 280 -10 269 0
285 1 285 18 0 10 3 22 7 26 4 3 8 14 9 24 4 22 10 52 29 137 9 39 16 77 17
85 0 8 4 20 7 25 4 6 8 26 10 45 2 19 8 38 13 41 6 4 6 9 -2 14 -9 5 -9 9 -1
14 6 4 12 20 14 37 2 16 6 34 9 39 3 6 4 18 3 28 -2 9 1 17 5 17 5 0 7 9 5 20
-2 11 0 20 4 20 5 0 9 10 9 23 2 31 7 55 14 63 4 3 4 17 2 30 -2 13 -1 24 4
24 5 0 9 6 9 13 0 6 4 28 8 47 4 19 8 40 9 47 1 7 5 15 8 19 4 3 4 12 1 20 -3
8 -1 14 3 14 5 0 10 12 10 27 1 26 11 78 14 78 2 0 10 47 12 73 1 12 6 22 12
22 5 0 6 3 3 7 -4 3 -2 12 4 20 9 10 8 13 -1 13 -10 0 -10 3 0 15 7 8 10 22 6
30 -3 8 -1 15 5 15 6 0 9 7 5 15 -3 8 -2 15 2 15 5 0 9 10 10 23 1 25 7 54 21
111 5 22 8 44 5 48 -3 4 0 8 5 8 6 0 10 3 10 8 -1 4 0 9 1 12 1 3 3 16 5 30 4
36 15 82 22 100 3 8 7 26 8 40 1 14 3 25 5 25 2 0 10 48 13 83 1 12 5 22 8 22
3 0 6 6 7 13 1 17 11 66 22 106 5 19 7 37 5 39 -2 3 1 14 7 25 6 12 12 37 13
57 1 21 6 43 11 51 4 7 9 20 10 29 2 8 5 26 8 40 3 14 7 39 10 55 8 42 14 70
16 70 1 0 3 7 5 15 8 36 18 86 20 105 2 11 4 20 5 20 3 0 11 39 15 74 2 19 8
37 13 40 5 3 8 21 7 39 -1 17 2 32 7 32 4 0 7 3 7 8 -1 4 0 9 1 12 1 3 3 14 5
25 1 11 6 37 10 58 9 53 1 74 -22 56 -9 -8 -14 -9 -11 -4 4 7 -8 11 -32 11
-25 0 -37 -4 -33 -10 3 -6 0 -6 -7 1 -8 7 -20 9 -29 4 -14 -7 -37 -7 -43 -1
-2 1 -22 3 -45 5 -29 1 -40 -1 -36 -9 4 -7 1 -6 -8 1 -9 7 -20 8 -29 3 -8 -5
-18 -6 -22 -4 -19 12 -69 13 -62 2 5 -7 2 -8 -7 -3 -22 14 -60 15 -52 2 5 -9
2 -8 -9 0 -8 7 -18 10 -22 6 -10 -11 -37 -12 -30 -2 5 10 -31 7 -41 -3 -6 -5
-13 -38 -20 -88 -2 -14 -4 -26 -6 -27 -1 -2 -3 -12 -4 -23 -1 -11 -4 -21 -5
-22 -1 -2 -4 -14 -6 -28 -4 -26 -11 -61 -14 -70 -1 -3 -1 -15 0 -27 1 -13 -3
-23 -8 -23 -5 0 -8 -10 -7 -22 1 -13 -4 -43 -10 -68 -7 -25 -11 -53 -9 -63 1
-9 -1 -17 -5 -17 -4 0 -8 -12 -9 -27 -4 -42 -7 -57 -15 -70 -4 -6 -2 -15 4
-19 7 -4 8 -9 1 -13 -9 -5 -22 -70 -25 -123 -1 -10 -4 -18 -8 -18 -4 0 -6 -11
-5 -25 2 -13 0 -23 -4 -20 -4 2 -7 -9 -8 -25 -5 -70 -6 -80 -13 -80 -3 0 -5
-11 -4 -25 2 -14 0 -25 -4 -25 -4 0 -7 -8 -7 -17 -1 -10 -4 -38 -9 -63 -4 -25
-8 -56 -10 -70 -1 -14 -5 -32 -8 -40 -6 -14 -11 -40 -24 -120 -3 -19 -10 -43
-15 -54 -8 -14 -7 -17 4 -10 9 6 9 3 -2 -11 -8 -10 -14 -20 -12 -22 6 -9 1
-63 -6 -59 -5 3 -8 -10 -7 -29 2 -20 -1 -37 -6 -40 -4 -3 -6 -14 -4 -25 2 -11
0 -22 -5 -25 -5 -3 -7 -17 -4 -30 2 -14 1 -25 -3 -25 -7 0 -13 -35 -16 -92 -1
-10 -4 -18 -7 -18 -5 0 -9 -27 -13 -82 -1 -16 -4 -28 -7 -28 -3 0 -6 -16 -7
-37 -1 -20 -7 -41 -13 -47 -8 -8 -9 -6 -5 7 4 9 3 17 -2 17 -5 0 -10 6 -11 13
0 11 -5 36 -18 102 -3 17 -8 37 -11 45 -4 8 -8 28 -10 45 -3 16 -8 32 -11 35
-4 3 -8 14 -9 25 0 11 -4 32 -7 48 -3 15 -8 39 -12 55 -7 37 -12 57 -14 57 -2
0 -7 31 -12 73 -1 6 -4 12 -8 12 -7 0 -8 3 -11 58 -1 17 -6 32 -11 32 -5 0 -6
5 -3 10 3 6 3 16 -1 22 -5 7 -9 19 -10 28 -1 8 -6 35 -12 59 -6 25 -9 49 -6
53 3 4 0 8 -7 8 -6 0 -9 8 -6 20 3 11 1 20 -4 20 -5 0 -8 3 -7 8 2 6 -4 40
-18 102 -8 40 -12 55 -14 58 -2 1 -3 10 -4 20 -1 9 -5 23 -9 30 -5 6 -6 12 -4
12 3 0 1 17 -5 38 -10 40 -19 89 -21 110 0 6 -3 12 -7 12 -4 0 -7 6 -7 13 0 6
-3 26 -7 42 -3 17 -9 44 -12 60 -3 17 -7 35 -8 40 -1 6 -8 20 -14 33 -9 15 -9
22 -2 22 6 0 8 5 3 13 -4 6 -8 17 -10 22 -1 6 -5 21 -8 35 -4 14 -8 34 -9 45
-2 11 -4 20 -5 20 -4 0 -21 85 -23 113 -1 6 -5 12 -10 12 -5 0 -6 5 -3 10 4 6
1 18 -7 27 -9 12 -9 15 0 9 6 -4 12 -2 12 3 0 6 -5 11 -11 11 -5 0 -7 5 -4 10
3 6 2 10 -2 10 -5 0 -9 12 -10 28 -6 74 -13 86 -49 88 -16 1 -21 -2 -17 -10 4
-7 2 -7 -8 1 -12 10 -18 10 -29 0 -10 -9 -11 -9 -6 1 4 6 2 12 -3 12 -6 0 -11
-6 -11 -12 0 -10 -2 -10 -9 0 -4 8 -12 14 -16 14 -4 0 -12 -6 -16 -14 -5 -7
-9 -8 -9 -3 0 6 -18 10 -40 11 -23 0 -37 -3 -33 -9 4 -6 1 -7 -8 -2 -22 14
-60 15 -52 2 5 -9 2 -8 -9 0 -8 7 -18 10 -22 6 -11 -11 -37 -12 -30 -1 8 12
-29 6 -38 -7 -5 -6 -8 -6 -8 1 0 7 -16 11 -37 10 -24 -1 -37 -7 -36 -14 2 -7
-1 -12 -5 -12 -4 0 -8 -8 -9 -17 0 -10 -3 -27 -6 -38 -15 -56 -39 -162 -40
-177 -1 -10 -4 -18 -7 -18 -3 0 -7 -14 -8 -31 -1 -17 -6 -39 -11 -48 -5 -9 -7
-24 -6 -33 2 -10 0 -18 -4 -18 -4 0 -8 -8 -8 -17 -8 -72 -11 -92 -19 -104 -4
-8 -9 -20 -10 -29 -1 -8 -5 -26 -9 -40 -4 -14 -9 -36 -10 -50 -2 -14 -4 -26
-5 -27 -2 -2 -4 -7 -5 -13 -1 -5 -3 -11 -5 -12 -1 -2 -3 -12 -5 -23 -2 -11 -6
-33 -10 -49 -3 -16 -7 -34 -8 -40 -1 -6 -6 -14 -12 -18 -6 -5 -5 -8 4 -8 10 0
11 -3 3 -13 -10 -12 -19 -51 -21 -90 -1 -10 -5 -16 -9 -13 -4 2 -7 -7 -7 -22
1 -15 -2 -31 -6 -37 -3 -5 -7 -17 -7 -25 -1 -23 -7 -44 -15 -57 -4 -6 -2 -15
4 -19 9 -5 8 -10 -2 -18 -8 -6 -15 -22 -17 -36 -3 -31 -10 -65 -12 -65 -3 0
-12 -41 -13 -62 0 -13 -4 -23 -8 -23 -4 0 -8 -8 -8 -17 -3 -57 -7 -83 -14 -83
-5 0 -7 -8 -6 -17 1 -10 0 -25 -4 -33 -3 -8 -9 -28 -13 -45 -4 -16 -9 -37 -11
-45 -2 -8 -6 -28 -8 -45 -2 -16 -5 -32 -6 -35 -1 -3 -1 -8 0 -12 0 -5 -3 -8
-8 -8 -4 0 -8 -8 -8 -17 1 -21 -10 -68 -23 -100 -7 -17 -6 -23 3 -23 9 0 9 -2
-1 -9 -7 -4 -14 -22 -14 -39 -1 -17 -5 -29 -10 -26 -5 3 -8 -2 -6 -11 2 -10
-3 -19 -10 -21 -7 -1 -8 0 -3 2 5 3 6 18 1 37 -5 18 -11 50 -15 72 -3 22 -7
47 -10 55 -5 18 -17 90 -18 108 0 6 -4 12 -9 12 -4 0 -8 5 -8 11 0 5 6 7 13 3
9 -6 9 -4 -1 8 -7 9 -12 20 -11 24 1 5 -1 27 -6 49 -5 22 -10 49 -11 60 -1 11
-3 20 -4 20 -2 0 -4 9 -5 20 -2 11 -6 36 -10 55 -4 19 -9 46 -10 59 -2 13 -8
28 -14 34 -7 7 -7 16 0 29 7 13 6 18 -2 18 -7 0 -10 2 -7 5 3 4 2 24 -3 46 -5
21 -12 56 -15 77 -4 20 -7 42 -8 47 -1 6 -6 16 -10 24 -7 11 -6 12 5 6 11 -7
12 -6 2 6 -7 9 -11 25 -8 38 2 12 0 19 -5 16 -5 -3 -9 3 -9 12 0 44 -12 108
-24 122 -10 12 -9 13 2 6 11 -6 12 -5 5 6 -9 15 -15 47 -18 89 0 14 -4 27 -8
30 -3 3 -9 25 -12 50 -2 25 -5 45 -7 45 -1 0 -3 14 -4 30 -2 17 -4 30 -5 30
-4 0 -23 108 -23 133 0 6 -3 12 -7 12 -4 0 -8 15 -8 33 -2 30 -9 72 -12 72 -1
0 -4 18 -6 40 -3 21 -10 46 -17 54 -10 12 -9 13 3 6 12 -7 13 -6 4 6 -6 8 -10
22 -9 31 2 10 -1 20 -5 23 -5 3 -7 12 -3 20 3 8 1 15 -3 15 -5 0 -9 18 -10 41
-1 47 -19 73 -34 49 -5 -8 -10 -10 -10 -4 0 6 -7 11 -15 11 -8 0 -15 -5 -15
-11 0 -7 -3 -7 -8 -1 -10 14 -84 16 -75 2 4 -6 1 -7 -8 -2 -22 14 -60 15 -52
2 5 -9 3 -9 -8 0 -9 7 -20 8 -29 3 -8 -5 -19 -6 -25 -2 -17 11 -85 10 -78 -1
4 -6 1 -7 -8 -2 -18 12 -49 14 -43 3 3 -4 0 -8 -5 -8 -6 0 -11 4 -11 8 0 12
-94 10 -102 -3 -5 -6 -8 -6 -8 3 0 6 -4 12 -10 12 -5 0 -10 -7 -10 -16z"/>
</g>
</svg>
