<svg xmlns="http://www.w3.org/2000/svg" shape-rendering="geometricPrecision" text-rendering="geometricPrecision" image-rendering="optimizeQuality" fill-rule="evenodd" clip-rule="evenodd" viewBox="0 0 640 640">
  <path d="M311.035 396.643l2.22 48.58c0 32.882-8.574 58.795-25.618 77.622h263.791V640H87.686V522.845h44.576c16.606-4.299 25.193-19.264 26.079-44.74l.437-22.95-2.22-58.512H86.351V283.327h66.804l-2.67-94.206c0-59.233 17.776-105.592 53.186-139.077C239.058 16.724 287.047-.012 347.485-.012c64.867 0 115.37 16.595 151.655 49.914 36.284 33.332 54.508 78.356 54.508 135.38h-143.21c0-45.473-19.7-68.126-58.961-68.126-14.811 0-26.658 5.917-35.54 17.622-9.035 11.693-13.488 29.764-13.488 54.343l3.85 94.206H439.6v113.316H311.035z" fill="#5e5a5c"/>
</svg>
